<svg width="40" height="40" viewBox="0 0 40 40" fill="none" xmlns="http://www.w3.org/2000/svg">
<circle cx="20" cy="20" r="20" fill="#D9CEFF"/>
<path d="M7.5 14.5V19.5013H8.75V27H7.5V30.75H27.5L31.25 30.7512L32.5 30.75V27H31.25V19.5013H32.5V14.5L20 7L7.5 14.5ZM12.5 27V19.5013H15V27H12.5ZM18.75 27V19.5013H21.25V27H18.75ZM27.5 27H25V19.5013H27.5V27ZM22.5 14.5C22.4999 14.8284 22.4352 15.1535 22.3094 15.4569C22.1837 15.7603 21.9994 16.0359 21.7671 16.268C21.5349 16.5002 21.2592 16.6843 20.9557 16.8099C20.6523 16.9355 20.3271 17.0001 19.9987 17C19.6704 16.9999 19.3452 16.9352 19.0418 16.8094C18.7385 16.6837 18.4629 16.4994 18.2307 16.2671C17.9986 16.0349 17.8145 15.7592 17.6889 15.4557C17.5633 15.1523 17.4987 14.8271 17.4987 14.4988C17.4989 13.8355 17.7625 13.1996 18.2316 12.7307C18.7007 12.2619 19.3368 11.9986 20 11.9988C20.6632 11.9989 21.2992 12.2625 21.768 12.7316C22.2369 13.2007 22.5002 13.8368 22.5 14.5Z" fill="#2E2A94"/>
</svg>
