<svg width="40" height="40" viewBox="0 0 40 40" fill="none" xmlns="http://www.w3.org/2000/svg">
<g clip-path="url(#clip0_22862_5172)">
<circle cx="20" cy="20" r="20" fill="#FFC1CE"/>
<path fill-rule="evenodd" clip-rule="evenodd" d="M31.6063 18.7485C31.648 19.1592 31.6707 19.5772 31.6707 20C31.6707 26.6282 26.3717 32 19.8359 32C13.2978 32 8 26.6282 8 20C8 13.3718 13.2978 8 19.8347 8C22.4342 8 24.837 8.85041 26.7886 10.2903L25.907 13.6242C24.3345 12.084 22.1936 11.1358 19.8336 11.1358C15.0052 11.1358 11.0905 15.1052 11.0905 20.001C11.0905 24.8969 15.0052 28.8663 19.8336 28.8663C24.6621 28.8663 28.5768 24.8969 28.5768 20.001C28.5768 19.2618 28.4862 18.543 28.3183 17.8569L31.605 18.7496L31.6063 18.7485ZM19.0522 20.4602C19.3023 20.8987 19.8563 21.0485 20.2888 20.7936L28.0395 16.2565L30.776 16.9994L36 13.9408L32.0283 12.8621L33.0921 8.83488L27.8681 11.8934L27.1355 14.6681L19.3823 19.2065C18.9498 19.4602 18.8021 20.0219 19.0535 20.4604L19.0522 20.4602ZM19.8349 16.8217C20.0445 16.8217 20.2495 16.8423 20.4484 16.8821L23.5052 15.0931C22.4854 14.3079 21.2143 13.8417 19.8348 13.8417C16.4812 13.8417 13.7614 16.5983 13.7614 19.9998C13.7614 23.4002 16.48 26.158 19.8348 26.158C23.1883 26.158 25.9081 23.4014 25.9081 19.9998C25.9081 19.7389 25.8915 19.4816 25.8605 19.2304L22.8046 21.0194C22.3852 22.2745 21.2142 23.178 19.8346 23.178C18.1036 23.178 16.7003 21.755 16.7003 20C16.7003 18.2449 18.1037 16.8219 19.8346 16.8219L19.8349 16.8217Z" fill="#2E2A94"/>
</g>
<defs>
<clipPath id="clip0_22862_5172">
<rect width="40" height="40" fill="white"/>
</clipPath>
</defs>
</svg>
