<svg width="40" height="40" viewBox="0 0 40 40" fill="none" xmlns="http://www.w3.org/2000/svg">
<circle cx="20" cy="20" r="20" fill="#D5DEFF"/>
<mask id="mask0_22862_5267" style="mask-type:alpha" maskUnits="userSpaceOnUse" x="0" y="0" width="40" height="40">
<circle cx="20" cy="20" r="20" fill="#2E86C1"/>
</mask>
<g mask="url(#mask0_22862_5267)">
<rect x="2" y="30" width="36" height="10" fill="#2E2A94"/>
<path d="M13.0447 37V31.1818H16.9652V32.196H14.2749V33.5824H16.7635V34.5966H14.2749V35.9858H16.9766V37H13.0447ZM17.7216 32.196V31.1818H22.5V32.196H20.7188V37H19.5028V32.196H17.7216ZM23.2869 37V31.1818H27.1392V32.196H24.517V33.5824H26.8835V34.5966H24.517V37H23.2869Z" fill="#D5DEFF"/>
</g>
<path d="M12.852 15.0938C12.7923 14.8864 12.7085 14.7031 12.6005 14.544C12.4926 14.3821 12.3605 14.2457 12.2042 14.1349C12.0508 14.0213 11.8747 13.9347 11.6758 13.875C11.4798 13.8153 11.2625 13.7855 11.0238 13.7855C10.5778 13.7855 10.1858 13.8963 9.8477 14.1179C9.51247 14.3395 9.25111 14.6619 9.06361 15.0852C8.87611 15.5057 8.78236 16.0199 8.78236 16.6278C8.78236 17.2358 8.87469 17.7528 9.05935 18.179C9.24401 18.6051 9.50537 18.9304 9.84344 19.1548C10.1815 19.3764 10.5807 19.4872 11.0409 19.4872C11.4585 19.4872 11.815 19.4134 12.1105 19.2656C12.4088 19.1151 12.6361 18.9034 12.7923 18.6307C12.9514 18.358 13.0309 18.0355 13.0309 17.6634L13.4059 17.7188H11.1559V16.3295H14.8079V17.429C14.8079 18.196 14.646 18.8551 14.3221 19.4063C13.9983 19.9545 13.5522 20.3778 12.9841 20.6761C12.4159 20.9716 11.7653 21.1193 11.0324 21.1193C10.2142 21.1193 9.49543 20.9389 8.87611 20.5781C8.25679 20.2145 7.77384 19.6989 7.42725 19.0313C7.0835 18.3608 6.91162 17.5653 6.91162 16.6449C6.91162 15.9375 7.01389 15.3068 7.21844 14.7528C7.42583 14.196 7.7156 13.7244 8.08776 13.3381C8.45992 12.9517 8.89316 12.6577 9.38747 12.456C9.88179 12.2543 10.4173 12.1534 10.994 12.1534C11.4883 12.1534 11.9486 12.2259 12.3747 12.3707C12.8008 12.5128 13.1787 12.7145 13.5082 12.9759C13.8406 13.2372 14.1119 13.5483 14.3221 13.9091C14.5324 14.267 14.6673 14.6619 14.727 15.0938H12.852Z" fill="#2E2A94"/>
<path d="M19.1172 21.1278C18.4553 21.1278 17.8829 20.9872 17.3999 20.706C16.9198 20.4219 16.5491 20.027 16.2877 19.5213C16.0263 19.0128 15.8956 18.4233 15.8956 17.7528C15.8956 17.0767 16.0263 16.4858 16.2877 15.9801C16.5491 15.4716 16.9198 15.0767 17.3999 14.7955C17.8829 14.5114 18.4553 14.3693 19.1172 14.3693C19.7792 14.3693 20.3502 14.5114 20.8303 14.7955C21.3133 15.0767 21.6854 15.4716 21.9468 15.9801C22.2081 16.4858 22.3388 17.0767 22.3388 17.7528C22.3388 18.4233 22.2081 19.0128 21.9468 19.5213C21.6854 20.027 21.3133 20.4219 20.8303 20.706C20.3502 20.9872 19.7792 21.1278 19.1172 21.1278ZM19.1258 19.7216C19.4269 19.7216 19.6783 19.6364 19.88 19.4659C20.0817 19.2926 20.2337 19.0568 20.336 18.7585C20.4411 18.4602 20.4937 18.1207 20.4937 17.7401C20.4937 17.3594 20.4411 17.0199 20.336 16.7216C20.2337 16.4233 20.0817 16.1875 19.88 16.0142C19.6783 15.8409 19.4269 15.7543 19.1258 15.7543C18.8218 15.7543 18.5661 15.8409 18.3587 16.0142C18.1542 16.1875 17.9993 16.4233 17.8942 16.7216C17.7919 17.0199 17.7408 17.3594 17.7408 17.7401C17.7408 18.1207 17.7919 18.4602 17.8942 18.7585C17.9993 19.0568 18.1542 19.2926 18.3587 19.4659C18.5661 19.6364 18.8218 19.7216 19.1258 19.7216Z" fill="#2E2A94"/>
<path d="M25.3346 12.2727V21H23.5192V12.2727H25.3346Z" fill="#2E2A94"/>
<path d="M29.2007 21.1065C28.7035 21.1065 28.2532 20.9787 27.8498 20.723C27.4493 20.4645 27.1311 20.0852 26.8953 19.5852C26.6623 19.0824 26.5459 18.4659 26.5459 17.7358C26.5459 16.9858 26.6666 16.3622 26.9081 15.8651C27.1495 15.3651 27.4706 14.9915 27.8711 14.7443C28.2745 14.4943 28.7163 14.3693 29.1964 14.3693C29.5629 14.3693 29.8683 14.4318 30.1126 14.5568C30.3598 14.679 30.5586 14.8324 30.7092 15.017C30.8626 15.1989 30.9791 15.3778 31.0586 15.554H31.114V12.2727H32.9251V21H31.1353V19.9517H31.0586C30.9734 20.1335 30.8527 20.3139 30.6964 20.4929C30.543 20.669 30.3427 20.8153 30.0956 20.9318C29.8513 21.0483 29.553 21.1065 29.2007 21.1065ZM29.776 19.6619C30.0686 19.6619 30.3157 19.5824 30.5174 19.4233C30.722 19.2614 30.8782 19.0355 30.9862 18.7457C31.097 18.456 31.1524 18.1165 31.1524 17.7273C31.1524 17.3381 31.0984 17 30.9905 16.7131C30.8825 16.4261 30.7263 16.2045 30.5217 16.0483C30.3172 15.892 30.0686 15.8139 29.776 15.8139C29.4777 15.8139 29.2263 15.8949 29.0217 16.0568C28.8172 16.2188 28.6623 16.4432 28.5572 16.7301C28.4521 17.017 28.3995 17.3494 28.3995 17.7273C28.3995 18.108 28.4521 18.4446 28.5572 18.7372C28.6652 19.027 28.82 19.2543 29.0217 19.419C29.2263 19.581 29.4777 19.6619 29.776 19.6619Z" fill="#2E2A94"/>
</svg>
