<svg width="40" height="40" viewBox="0 0 40 40" fill="none" xmlns="http://www.w3.org/2000/svg">
<circle cx="20" cy="20" r="20" fill="#D9CEFF"/>
<mask id="mask0_22862_5107" style="mask-type:alpha" maskUnits="userSpaceOnUse" x="0" y="0" width="40" height="40">
<circle cx="20" cy="20" r="20" fill="#2E86C1"/>
</mask>
<g mask="url(#mask0_22862_5107)">
<rect x="2" y="30" width="36" height="10" fill="#2E2A94"/>
<path d="M13.0447 37V31.1818H16.9652V32.196H14.2749V33.5824H16.7635V34.5966H14.2749V35.9858H16.9766V37H13.0447ZM17.7216 32.196V31.1818H22.5V32.196H20.7188V37H19.5028V32.196H17.7216ZM23.2869 37V31.1818H27.1392V32.196H24.517V33.5824H26.8835V34.5966H24.517V37H23.2869Z" fill="#D9CEFF"/>
</g>
<path d="M20.5 15L25 10.5H27.5V12.5L22.5 17.5V21H17.5V15H20.5Z" fill="#D9CEFF"/>
<path d="M31.5441 14.8255C30.2928 10.2561 26.3848 6.79203 21.7569 6.13055C21.1655 6.04352 20.5742 6 20 6C19.4258 6 18.8345 6.04352 18.2431 6.13055C13.6152 6.79203 9.70717 10.2561 8.45592 14.8255C7.66746 17.7151 7.94171 20.5612 8.97013 22.9895C9.50149 24.2341 10.7442 25 12.0811 25H20H27.9189C29.2558 25 30.4985 24.2341 31.0299 22.9895C32.0583 20.5612 32.3325 17.7151 31.5441 14.8255ZM13.4121 20.4001C13.5483 20.8101 13.3332 21.2548 12.9296 21.3941C12.8464 21.4228 12.7633 21.4359 12.681 21.4359C12.3597 21.4359 12.0597 21.2305 11.95 20.9049C11.662 20.0424 11.5155 19.1285 11.5155 18.1894C11.5155 13.4381 15.3215 9.57283 20 9.57283C20.2991 9.57283 20.5965 9.59111 20.8956 9.61984C21.6995 9.6973 22.4759 9.90009 23.2035 10.2204C23.5943 10.3927 23.7735 10.854 23.6038 11.2509C23.4349 11.6478 22.9807 11.8297 22.5891 11.6574C22.0097 11.4023 21.3918 11.2413 20.7499 11.1795C20.4996 11.1552 20.2503 11.1395 20 11.1395C16.1717 11.1395 13.0581 14.3024 13.0581 18.1894C13.0581 18.9571 13.1773 19.7004 13.4121 20.4001ZM26.1877 13.0134L22.0191 17.2468C22.3971 18.0832 22.2548 19.1024 21.5761 19.7909C20.7053 20.6752 19.2938 20.6752 18.4231 19.7909C17.5523 18.9066 17.5523 17.4731 18.4231 16.5888C19.101 15.9004 20.1046 15.755 20.9282 16.1388L25.0958 11.9063C25.3975 11.5999 25.886 11.5999 26.1868 11.9063C26.4885 12.2118 26.4885 12.7079 26.1877 13.0134Z" fill="#2E2A94"/>
</svg>
