<svg width="40" height="40" viewBox="0 0 40 40" fill="none" xmlns="http://www.w3.org/2000/svg">
<circle cx="20" cy="20" r="20" fill="#D9CEFF"/>
<mask id="mask0_22862_5101" style="mask-type:alpha" maskUnits="userSpaceOnUse" x="0" y="0" width="40" height="40">
<circle cx="20" cy="20" r="20" fill="#2E86C1"/>
</mask>
<g mask="url(#mask0_22862_5101)">
<rect x="2" y="30" width="36" height="10" fill="#2E2A94"/>
<path d="M13.0447 37V31.1818H16.9652V32.196H14.2749V33.5824H16.7635V34.5966H14.2749V35.9858H16.9766V37H13.0447ZM17.7216 32.196V31.1818H22.5V32.196H20.7188V37H19.5028V32.196H17.7216ZM23.2869 37V31.1818H27.1392V32.196H24.517V33.5824H26.8835V34.5966H24.517V37H23.2869Z" fill="#D9CEFF"/>
</g>
<path d="M16.0547 7H10.5859C10.2623 7 10 7.26234 10 7.58594V8.95312H16.6406V7.58594C16.6406 7.26234 16.3783 7 16.0547 7Z" fill="#2E2A94"/>
<path d="M29.7056 12.5855C29.5235 12.4811 29.2995 12.482 29.1183 12.588L23.3203 15.9786V13.0938C23.3203 12.8838 23.208 12.69 23.0259 12.5855C22.8438 12.4811 22.6198 12.482 22.4386 12.588L16.6406 15.9786V10.125H10V26.4141C10 26.7377 10.2623 27 10.5859 27H29.4141C29.7377 27 30 26.7377 30 26.4141V13.0938C30 12.8838 29.8877 12.69 29.7056 12.5855ZM18.9844 22.8789C18.9844 23.2025 18.722 23.4648 18.3984 23.4648H16.0547C15.7311 23.4648 15.4688 23.2025 15.4688 22.8789V20.5352C15.4688 20.2116 15.7311 19.9492 16.0547 19.9492H18.3984C18.722 19.9492 18.9844 20.2116 18.9844 20.5352V22.8789ZM25.6641 22.8789C25.6641 23.2025 25.4017 23.4648 25.0781 23.4648H22.7344C22.4108 23.4648 22.1484 23.2025 22.1484 22.8789V20.5352C22.1484 20.2116 22.4108 19.9492 22.7344 19.9492H25.0781C25.4017 19.9492 25.6641 20.2116 25.6641 20.5352V22.8789Z" fill="#2E2A94"/>
</svg>
