<svg width="40" height="40" viewBox="0 0 40 40" fill="none" xmlns="http://www.w3.org/2000/svg">
<circle cx="20" cy="20" r="20" fill="#D9CEFF"/>
<mask id="mask0_22862_5110" style="mask-type:alpha" maskUnits="userSpaceOnUse" x="0" y="0" width="40" height="40">
<circle cx="20" cy="20" r="20" fill="#2E86C1"/>
</mask>
<g mask="url(#mask0_22862_5110)">
<rect x="2" y="30" width="36" height="10" fill="#2E2A94"/>
<path d="M13.0447 37V31.1818H16.9652V32.196H14.2749V33.5824H16.7635V34.5966H14.2749V35.9858H16.9766V37H13.0447ZM17.7216 32.196V31.1818H22.5V32.196H20.7188V37H19.5028V32.196H17.7216ZM23.2869 37V31.1818H27.1392V32.196H24.517V33.5824H26.8835V34.5966H24.517V37H23.2869Z" fill="#D9CEFF"/>
</g>
<path d="M10.7018 8.7969C10.3907 9.33023 10.7754 10 11.3928 10L15.6072 10C16.2246 10 16.6093 9.33023 16.2982 8.7969L14.191 5.18461C13.8823 4.65541 13.1177 4.65541 12.809 5.18461L10.7018 8.7969Z" fill="#2E2A94"/>
<path d="M24.7018 8.7969C24.3907 9.33023 24.7754 10 25.3928 10L29.6072 10C30.2246 10 30.6093 9.33023 30.2982 8.7969L28.191 5.18461C27.8823 4.65541 27.1177 4.65541 26.809 5.18461L24.7018 8.7969Z" fill="#2E2A94"/>
<path d="M17.7018 5.7969C17.3907 6.33023 17.7754 7 18.3928 7L22.6072 7C23.2246 7 23.6093 6.33023 23.2982 5.7969L21.191 2.18461C20.8823 1.65541 20.1177 1.65541 19.809 2.18461L17.7018 5.7969Z" fill="#2E2A94"/>
<g clip-path="url(#clip0_22862_5110)">
<path d="M23.5443 12.4399H26.3464L24.6472 20.074C24.3203 21.5258 24.0964 22.4139 23.9727 22.7459C24.4115 24.7654 25.0534 25.7732 25.8907 25.7732C26.8802 25.7732 27.3933 25.087 27.4271 23.7146H28.0013C27.9675 24.992 27.737 26.0271 27.3034 26.8201C26.8698 27.6079 26.3021 28.0011 25.599 28.0011C25.0196 28.0011 24.586 27.7654 24.2995 27.2928C24.0183 26.8201 23.7084 25.8527 23.3828 24.3956C22.2409 26.798 20.3724 28.0024 17.7852 28.0024C16.0131 28.0024 14.612 27.311 13.5651 25.9321C12.5235 24.5519 12 22.5779 12 20.0063C12 17.4803 12.5677 15.5167 13.7097 14.1105C14.8529 12.7042 16.2253 12.0011 17.8282 12.0011C18.9584 12.0011 19.8868 12.4008 20.6133 13.2055C21.3386 14.005 21.9805 15.3149 22.5378 17.1261L23.5443 12.4399ZM22.0925 18.9034C21.5808 17.143 21.0013 15.7641 20.3659 14.768C19.7305 13.7784 18.9701 13.2823 18.0821 13.2823C16.0742 13.2823 15.0716 15.6339 15.0716 20.3318C15.0716 24.7928 16.0339 27.0206 17.9519 27.0206C19.6172 27.0206 20.849 25.0519 21.6485 21.1131L22.0925 18.9034Z" fill="#2E2A94"/>
</g>
<defs>
<clipPath id="clip0_22862_5110">
<rect width="16" height="16" fill="white" transform="translate(11.9974 12.0004)"/>
</clipPath>
</defs>
</svg>
